<?xml version="1.0" encoding="UTF-8"?>
<svg version="1.1" xmlns="http://www.w3.org/2000/svg" width="144" height="144">
<path d="M0 0 C1.30710938 -0.00128906 2.61421875 -0.00257812 3.9609375 -0.00390625 C4.63479492 -0.00181152 5.30865234 0.0002832 6.00292969 0.00244141 C8.05671574 0.00779742 10.11028315 0.00247805 12.1640625 -0.00390625 C13.47117187 -0.00261719 14.77828125 -0.00132813 16.125 0 C17.31222656 0.00112793 18.49945313 0.00225586 19.72265625 0.00341797 C22.9214496 0.12734783 25.92186223 0.53109594 29.0625 1.1328125 C29.0625 1.7928125 29.0625 2.4528125 29.0625 3.1328125 C31.7025 3.4628125 34.3425 3.7928125 37.0625 4.1328125 C37.0625 4.7928125 37.0625 5.4528125 37.0625 6.1328125 C40.0325 6.6278125 40.0325 6.6278125 43.0625 7.1328125 C43.0625 7.7928125 43.0625 8.4528125 43.0625 9.1328125 C43.97 9.1946875 44.8775 9.2565625 45.8125 9.3203125 C49.84103569 10.32744642 50.68150194 11.84867724 53.0625 15.1328125 C54.0525 15.4628125 55.0425 15.7928125 56.0625 16.1328125 C56.0625 16.7928125 56.0625 17.4528125 56.0625 18.1328125 C57.5475 18.6278125 57.5475 18.6278125 59.0625 19.1328125 C59.0625 19.7928125 59.0625 20.4528125 59.0625 21.1328125 C59.7225 21.1328125 60.3825 21.1328125 61.0625 21.1328125 C61.5575 22.6178125 61.5575 22.6178125 62.0625 24.1328125 C62.578125 24.6278125 63.09375 25.1228125 63.625 25.6328125 C65.0625 27.1328125 65.0625 27.1328125 65.0625 30.1328125 C66.5475 30.6278125 66.5475 30.6278125 68.0625 31.1328125 C68.0625 32.1228125 68.0625 33.1128125 68.0625 34.1328125 C68.7225 34.1328125 69.3825 34.1328125 70.0625 34.1328125 C70.3925 36.7728125 70.7225 39.4128125 71.0625 42.1328125 C71.7225 42.1328125 72.3825 42.1328125 73.0625 42.1328125 C74.35629996 48.06786311 74.20957333 53.96707817 74.1875 60.0078125 C74.19136719 61.05839844 74.19523438 62.10898437 74.19921875 63.19140625 C74.19203142 68.9340815 73.9245672 74.45411585 73.0625 80.1328125 C72.4025 80.1328125 71.7425 80.1328125 71.0625 80.1328125 C70.7325 82.4428125 70.4025 84.7528125 70.0625 87.1328125 C69.4025 87.1328125 68.7425 87.1328125 68.0625 87.1328125 C67.7325 89.1128125 67.4025 91.0928125 67.0625 93.1328125 C66.4025 93.1328125 65.7425 93.1328125 65.0625 93.1328125 C64.7325 94.7828125 64.4025 96.4328125 64.0625 98.1328125 C63.4025 98.1328125 62.7425 98.1328125 62.0625 98.1328125 C61.5675 100.1128125 61.5675 100.1128125 61.0625 102.1328125 C60.4025 102.1328125 59.7425 102.1328125 59.0625 102.1328125 C59.000625 102.8753125 58.93875 103.6178125 58.875 104.3828125 C57.80540323 108.00298617 56.05390387 108.90665148 53.0625 111.1328125 C52.4025 111.9578125 51.7425 112.7828125 51.0625 113.6328125 C48.95930365 116.26180793 46.68350457 118.03600885 44.0625 120.1328125 C42.70005204 121.77576445 41.36385125 123.44105587 40.0625 125.1328125 C37.65399206 128.06490912 35.81065151 128.62630554 32.0625 129.1328125 C31.7325 130.1228125 31.4025 131.1128125 31.0625 132.1328125 C30.0725 132.1328125 29.0825 132.1328125 28.0625 132.1328125 C28.0625 132.7928125 28.0625 133.4528125 28.0625 134.1328125 C26.4125 134.4628125 24.7625 134.7928125 23.0625 135.1328125 C22.7325 136.1228125 22.4025 137.1128125 22.0625 138.1328125 C21.0725 138.1328125 20.0825 138.1328125 19.0625 138.1328125 C19.0625 138.7928125 19.0625 139.4528125 19.0625 140.1328125 C17.4125 140.4628125 15.7625 140.7928125 14.0625 141.1328125 C14.0625 141.7928125 14.0625 142.4528125 14.0625 143.1328125 C12.0825 143.4628125 10.1025 143.7928125 8.0625 144.1328125 C8.0625 136.2128125 8.0625 128.2928125 8.0625 120.1328125 C5.896875 120.1534375 3.73125 120.1740625 1.5 120.1953125 C-3.43805775 120.2003156 -8.09090049 120.05597431 -12.9375 119.1328125 C-12.9375 118.4728125 -12.9375 117.8128125 -12.9375 117.1328125 C-15.5775 116.8028125 -18.2175 116.4728125 -20.9375 116.1328125 C-20.9375 115.4728125 -20.9375 114.8128125 -20.9375 114.1328125 C-23.9075 113.6378125 -23.9075 113.6378125 -26.9375 113.1328125 C-26.9375 112.4728125 -26.9375 111.8128125 -26.9375 111.1328125 C-28.29875 111.04 -28.29875 111.04 -29.6875 110.9453125 C-33.71603569 109.93817858 -34.55650194 108.41694776 -36.9375 105.1328125 C-38.4225 104.6378125 -38.4225 104.6378125 -39.9375 104.1328125 C-39.9375 103.4728125 -39.9375 102.8128125 -39.9375 102.1328125 C-41.4225 101.6378125 -41.4225 101.6378125 -42.9375 101.1328125 C-42.9375 100.4728125 -42.9375 99.8128125 -42.9375 99.1328125 C-43.5975 99.1328125 -44.2575 99.1328125 -44.9375 99.1328125 C-45.2675 98.1428125 -45.5975 97.1528125 -45.9375 96.1328125 C-46.453125 95.6378125 -46.96875 95.1428125 -47.5 94.6328125 C-48.9375 93.1328125 -48.9375 93.1328125 -48.9375 90.1328125 C-49.9275 89.8028125 -50.9175 89.4728125 -51.9375 89.1328125 C-51.9375 88.1428125 -51.9375 87.1528125 -51.9375 86.1328125 C-52.5975 86.1328125 -53.2575 86.1328125 -53.9375 86.1328125 C-54.2675 83.4928125 -54.5975 80.8528125 -54.9375 78.1328125 C-55.5975 78.1328125 -56.2575 78.1328125 -56.9375 78.1328125 C-58.24393229 72.1605506 -58.0845264 66.21209899 -58.0625 60.1328125 C-58.06636719 59.06546875 -58.07023437 57.998125 -58.07421875 56.8984375 C-58.06796636 51.87151515 -58.01739207 47.06946196 -56.9375 42.1328125 C-56.2775 42.1328125 -55.6175 42.1328125 -54.9375 42.1328125 C-54.6075 39.4928125 -54.2775 36.8528125 -53.9375 34.1328125 C-53.2775 34.1328125 -52.6175 34.1328125 -51.9375 34.1328125 C-51.6075 32.8128125 -51.2775 31.4928125 -50.9375 30.1328125 C-50.2775 30.1328125 -49.6175 30.1328125 -48.9375 30.1328125 C-48.81375 29.3284375 -48.69 28.5240625 -48.5625 27.6953125 C-48.35625 26.8496875 -48.15 26.0040625 -47.9375 25.1328125 C-47.2775 24.8028125 -46.6175 24.4728125 -45.9375 24.1328125 C-45.6075 23.1428125 -45.2775 22.1528125 -44.9375 21.1328125 C-44.2775 21.1328125 -43.6175 21.1328125 -42.9375 21.1328125 C-42.6075 20.1428125 -42.2775 19.1528125 -41.9375 18.1328125 C-41.2775 18.1328125 -40.6175 18.1328125 -39.9375 18.1328125 C-39.9375 17.4728125 -39.9375 16.8128125 -39.9375 16.1328125 C-38.9475 15.8028125 -37.9575 15.4728125 -36.9375 15.1328125 C-36.0403125 13.8953125 -36.0403125 13.8953125 -35.125 12.6328125 C-32.46155783 9.58887859 -30.88471131 9.40194054 -26.9375 9.1328125 C-26.9375 8.4728125 -26.9375 7.8128125 -26.9375 7.1328125 C-24.9575 6.8028125 -22.9775 6.4728125 -20.9375 6.1328125 C-20.9375 5.4728125 -20.9375 4.8128125 -20.9375 4.1328125 C-18.2975 3.8028125 -15.6575 3.4728125 -12.9375 3.1328125 C-12.9375 2.4728125 -12.9375 1.8128125 -12.9375 1.1328125 C-8.57172668 0.29637153 -4.44257921 0.00422069 0 0 Z " fill="#03A7F6" transform="translate(63.9375,-0.1328125)"/>
<path d="M0 0 C2.64 0 5.28 0 8 0 C8.12375 0.639375 8.2475 1.27875 8.375 1.9375 C8.58125 2.618125 8.7875 3.29875 9 4 C9.66 4.33 10.32 4.66 11 5 C11 5.99 11 6.98 11 8 C11.66 8 12.32 8 13 8 C13.33 9.98 13.66 11.96 14 14 C14.99 14.33 15.98 14.66 17 15 C17 15.99 17 16.98 17 18 C17.66 18 18.32 18 19 18 C19.33 18.66 19.66 19.32 20 20 C20.33 19.01 20.66 18.02 21 17 C21.66 17 22.32 17 23 17 C23 16.01 23 15.02 23 14 C23.66 14 24.32 14 25 14 C25.33 12.02 25.66 10.04 26 8 C26.66 8 27.32 8 28 8 C28.33 6.02 28.66 4.04 29 2 C33.455 1.505 33.455 1.505 38 1 C38 13.87 38 26.74 38 40 C35.69 40 33.38 40 31 40 C29.41596476 38.41596476 29.78025065 36.7228362 29.68359375 34.52734375 C29.64169922 33.62822266 29.59980469 32.72910156 29.55664062 31.80273438 C29.51732422 30.85720703 29.47800781 29.91167969 29.4375 28.9375 C29.39431641 27.98810547 29.35113281 27.03871094 29.30664062 26.06054688 C29.20020724 23.70718647 29.09818992 21.35371646 29 19 C27.43977277 21.58589193 25.90437017 24.1721337 24.4375 26.8125 C23.963125 27.534375 23.48875 28.25625 23 29 C22.34 29 21.68 29 21 29 C21 29.99 21 30.98 21 32 C19.68 32 18.36 32 17 32 C17 31.01 17 30.02 17 29 C16.01 28.67 15.02 28.34 14 28 C11.92469613 25.07920195 11 23.62453269 11 20 C10.34 20 9.68 20 9 20 C8.67 26.93 8.34 33.86 8 41 C5.36 41 2.72 41 0 41 C0 27.47 0 13.94 0 0 Z " fill="#E5F6FE" transform="translate(25,43)"/>
<path d="M0 0 C4.95 0 9.9 0 15 0 C15 0.66 15 1.32 15 2 C15.99 2 16.98 2 18 2 C17.67 3.98 17.34 5.96 17 8 C12.71 8 8.42 8 4 8 C2.91915479 11.63619656 2.91915479 11.63619656 3 14 C3.63808594 14.18175781 4.27617188 14.36351562 4.93359375 14.55078125 C5.75988281 14.80214844 6.58617188 15.05351563 7.4375 15.3125 C8.26121094 15.55613281 9.08492187 15.79976562 9.93359375 16.05078125 C10.61550781 16.36402344 11.29742187 16.67726563 12 17 C12.33 17.99 12.66 18.98 13 20 C13.66 20 14.32 20 15 20 C17.91890526 22.83305511 18.93714316 24.41333614 19.375 28.5 C18.93178582 32.63666565 18.21834725 35.51679465 15.5625 38.75 C12.05674209 41.55460633 8.2861153 41.13392941 4 41.125 C2.7625 41.12757812 1.525 41.13015625 0.25 41.1328125 C-3 41 -3 41 -6 40 C-6 37.36 -6 34.72 -6 32 C-0.39 32 5.22 32 11 32 C10.34 29.36 9.68 26.72 9 24 C5.7 23.34 2.4 22.68 -1 22 C-1 21.34 -1 20.68 -1 20 C-1.66 20 -2.32 20 -3 20 C-4.61328125 18.82421875 -4.61328125 18.82421875 -6 17 C-6.29296875 14.51953125 -6.29296875 14.51953125 -6.1875 11.8125 C-6.16042969 10.91144531 -6.13335937 10.01039062 -6.10546875 9.08203125 C-6.07066406 8.39496094 -6.03585938 7.70789062 -6 7 C-5.34 7 -4.68 7 -4 7 C-3.67 5.35 -3.34 3.7 -3 2 C-2.01 2 -1.02 2 0 2 C0 1.34 0 0.68 0 0 Z " fill="#E2F5FE" transform="translate(75,43)"/>
<path d="M0 0 C0 0.99 0 1.98 0 3 C-0.66 3 -1.32 3 -2 3 C-2 3.99 -2 4.98 -2 6 C-6.95 6 -11.9 6 -17 6 C-17 7.98 -17 9.96 -17 12 C-15.948125 12.185625 -15.948125 12.185625 -14.875 12.375 C-8.74132935 13.70840666 -5.73788447 14.79366092 -2 20 C-1.34 20.33 -0.68 20.66 0 21 C0.62158273 31.82589928 0.62158273 31.82589928 -1.6875 36.1875 C-5.70996985 39.34024664 -10.09345907 39.13756395 -15.0625 39.125 C-16.59583984 39.12886719 -16.59583984 39.12886719 -18.16015625 39.1328125 C-20.61649932 39.01793538 -22.65768316 38.70775041 -25 38 C-24.67 35.36 -24.34 32.72 -24 30 C-16.575 30.99 -16.575 30.99 -9 32 C-8.67 29.36 -8.34 26.72 -8 24 C-8.99 24 -9.98 24 -11 24 C-11.33 23.34 -11.66 22.68 -12 22 C-13.0725 21.54625 -14.145 21.0925 -15.25 20.625 C-21.68217596 17.87972078 -21.68217596 17.87972078 -24 15 C-25.45947748 4.96435486 -25.45947748 4.96435486 -22.65625 1.19140625 C-16.82738149 -3.00152982 -6.61981309 -1.47106957 0 0 Z " fill="#E9F7FE" transform="translate(123,45)"/>
<path d="M0 0 C0.66 0 1.32 0 2 0 C1.67 8.91 1.34 17.82 1 27 C0.67 27 0.34 27 0 27 C-0.19622046 22.87536584 -0.38050216 18.75028427 -0.5625 14.625 C-0.61857422 13.449375 -0.67464844 12.27375 -0.73242188 11.0625 C-0.78076172 9.94101563 -0.82910156 8.81953125 -0.87890625 7.6640625 C-0.9260376 6.62717285 -0.97316895 5.5902832 -1.02172852 4.52197266 C-1 2 -1 2 0 0 Z " fill="#8CD8FC" transform="translate(55,55)"/>
</svg>
